<svg width="930" height="110" viewBox="0 0 930 110" fill="none" xmlns="http://www.w3.org/2000/svg">
<path d="M1.8509 7.62939e-05H99.9681C100.989 7.62939e-05 101.819 0.827072 101.819 1.85098V22.6243C101.819 23.6482 100.989 24.4752 99.9681 24.4752H40.4441C39.4202 24.4752 38.5932 25.3022 38.5932 26.3261V39.4104C38.5932 40.4343 39.4202 41.2613 40.4441 41.2613H88.2031C89.2237 41.2613 90.054 42.0916 90.054 43.1122V62.6319C90.054 63.6525 89.2237 64.4796 88.2031 64.4796H40.4441C39.4202 64.4796 38.5932 65.3098 38.5932 66.3304V83.4972C38.5932 84.5178 39.4202 85.3481 40.4441 85.3481H99.9681C100.989 85.3481 101.819 86.1751 101.819 87.199V107.972C101.819 108.993 100.989 109.823 99.9681 109.823H1.8509C0.830278 109.823 0 108.993 0 107.972V1.85098C0 0.827072 0.830278 7.62939e-05 1.8509 7.62939e-05Z" fill="#BEB3A5"/>
<path d="M111.019 7.62939e-05H146.695C147.719 7.62939e-05 148.546 0.827072 148.546 1.85098V80.8291C148.546 81.8498 149.376 82.6768 150.397 82.6768H201.136C202.16 82.6768 202.987 83.507 202.987 84.5277V107.972C202.987 108.993 202.16 109.823 201.136 109.823H111.019C109.999 109.823 109.168 108.993 109.168 107.972V1.85098C109.168 0.827072 109.999 7.62939e-05 111.019 7.62939e-05Z" fill="#BEB3A5"/>
<path d="M211.757 7.62939e-05H309.874C310.895 7.62939e-05 311.725 0.827072 311.725 1.85098V22.6243C311.725 23.6482 310.895 24.4752 309.874 24.4752H250.35C249.326 24.4752 248.499 25.3022 248.499 26.3261V39.4104C248.499 40.4343 249.326 41.2613 250.35 41.2613H298.109C299.129 41.2613 299.96 42.0916 299.96 43.1122V62.6319C299.96 63.6525 299.129 64.4796 298.109 64.4796H250.35C249.326 64.4796 248.499 65.3098 248.499 66.3304V83.4972C248.499 84.5178 249.326 85.3481 250.35 85.3481H309.874C310.895 85.3481 311.725 86.1751 311.725 87.199V107.972C311.725 108.993 310.895 109.823 309.874 109.823H211.757C210.736 109.823 209.906 108.993 209.906 107.972V1.85098C209.906 0.827072 210.736 7.62939e-05 211.757 7.62939e-05Z" fill="#BEB3A5"/>
<path d="M383.399 45.9706C392.342 45.9706 396.89 41.1071 396.89 33.8872C396.89 27.3008 392.496 22.9098 383.399 22.9098H359.206C358.185 22.9098 357.355 23.7368 357.355 24.7575V44.1197C357.355 45.1436 358.185 45.9706 359.206 45.9706H383.399ZM319.074 1.85098C319.074 0.830353 319.904 7.62939e-05 320.925 7.62939e-05H394.225C422.934 7.62939e-05 436.898 14.5907 436.898 33.5755C436.898 53.8139 422.619 68.7195 394.225 68.7195H359.206C358.185 68.7195 357.355 69.5465 357.355 70.5672V107.972C357.355 108.996 356.528 109.823 355.504 109.823H320.925C319.904 109.823 319.074 108.996 319.074 107.972V1.85098Z" fill="#BEB3A5"/>
<path d="M443.271 7.62939e-05H478.163C479.187 7.62939e-05 480.014 0.827072 480.014 1.85098V38.311C480.014 39.3349 480.841 40.1619 481.864 40.1619H517.225C518.249 40.1619 519.076 39.3349 519.076 38.311V1.85098C519.076 0.827072 519.906 7.62939e-05 520.927 7.62939e-05H555.979C557.003 7.62939e-05 557.83 0.827072 557.83 1.85098V107.972C557.83 108.993 557.003 109.823 555.979 109.823H520.927C519.906 109.823 519.076 108.993 519.076 107.972V66.488C519.076 65.4674 518.249 64.6371 517.225 64.6371H481.864C480.841 64.6371 480.014 65.4674 480.014 66.488V107.972C480.014 108.993 479.187 109.823 478.163 109.823H443.271C442.251 109.823 441.42 108.993 441.42 107.972V1.85098C441.42 0.827072 442.251 7.62939e-05 443.271 7.62939e-05Z" fill="#BEB3A5"/>
<path d="M634.401 65.8447L624.671 34.7864C624.133 33.0602 621.691 33.0537 621.143 34.7799L611.288 65.8382C610.907 67.0327 611.8 68.247 613.05 68.247H632.636C633.886 68.247 634.775 67.036 634.401 65.8447ZM603.35 7.62939e-05H649.386C650.167 7.62939e-05 650.862 0.489059 651.125 1.22417L689.482 107.346C689.918 108.55 689.022 109.823 687.739 109.823H650.144C649.343 109.823 648.634 109.311 648.385 108.55L642.632 91.0156C642.382 90.2576 641.674 89.7423 640.873 89.7423H604.803C604.003 89.7423 603.294 90.2576 603.044 91.0156L597.291 108.55C597.042 109.311 596.333 109.823 595.532 109.823H564.996C563.713 109.823 562.82 108.55 563.257 107.346L601.61 1.22417C601.876 0.489059 602.572 7.62939e-05 603.35 7.62939e-05Z" fill="#BEB3A5"/>
<path d="M695.785 7.62939e-05H736.298C736.889 7.62939e-05 737.44 0.279022 737.788 0.751595L776.569 53.361C777.625 54.7984 779.906 54.0502 779.906 52.2617V1.85098C779.906 0.827072 780.736 7.62939e-05 781.757 7.62939e-05H809.196C810.262 7.62939e-05 811.129 0.866455 811.129 1.93302V107.972C811.129 108.993 810.302 109.823 809.278 109.823H774.888C774.298 109.823 773.74 109.541 773.392 109.062L728.498 47.4244C727.444 45.9739 725.154 46.7221 725.154 48.5139V107.972C725.154 108.993 724.323 109.823 723.303 109.823H695.785C694.762 109.823 693.935 108.993 693.935 107.972V1.85098C693.935 0.827072 694.762 7.62939e-05 695.785 7.62939e-05Z" fill="#BEB3A5"/>
<path d="M852.842 25.8897H820.386C819.32 25.8897 818.453 25.0233 818.453 23.9567V1.93302C818.453 0.866455 819.32 7.62939e-05 820.386 7.62939e-05H928.148C929.172 7.62939e-05 929.999 0.830353 929.999 1.85098V24.0388C929.999 25.0627 929.172 25.8897 928.148 25.8897H895.767C894.747 25.8897 893.917 26.7167 893.917 27.7406V107.972C893.917 108.996 893.09 109.823 892.066 109.823H856.544C855.52 109.823 854.693 108.996 854.693 107.972V27.7406C854.693 26.7167 853.866 25.8897 852.842 25.8897Z" fill="#BEB3A5"/>
</svg>
